<?xml version="1.0" encoding="UTF-8"?>
<svg id="Capa_2" data-name="Capa 2" xmlns="http://www.w3.org/2000/svg" viewBox="0 0 68.07 96.41">
  <defs>
    <style>
      .cls-1 {
        fill: #fff;
      }

      .cls-2 {
        fill: #45b6a4;
      }

      .cls-3 {
        fill: #1d4ed8;
      }
    </style>
  </defs>
  <g id="Capa_1-2" data-name="Capa 1">
    <g>
      <path class="cls-1" d="M31.45,71.55c2.3-2.41,6.03-1.81,8.68-.36,1.06.57,3.3,3,3.53,3,.15,0,1.26-1.44,2.35-1.85,4.9-1.85,7.35,2.8,5.68,7.08-.92,2.36-7.94,10.2-10.25,9.65-1.43-.34-7.66-5.79-8.74-7.18-2.04-2.62-3.9-7.55-1.25-10.33Z"/>
      <path class="cls-3" d="M60,92.4c.78-2.53,1.38-6.07.54-10.04-.74-3.51-2.3-5.89-3.9-8.34-2.48-3.79-4.11-5.15-6.2-7.07-.67-.62-3.61-2.41-3.71-2.84-.11-.48.76-1.49.88-2.31,1.38-9.98-10.51-11.29-11.61-19.17-.44-3.12.14-5.78,1.37-8.6.37-.28,4.75,4.41,8.14,3.76.24-.05.98-3.08,2.35-4.24,1.38-1.16,3.38-.8,3.51-.93.23-.21-.67-4.75-.48-6.31.37-2.97,4.1-6.79,1.64-10.03-1.7,3.44-5.65,7.06-9.55,7.73-.83.14-4.95.42-5.17.21-.24-.24.4-7.61-2.52-2.76-1.82,3.03.76,3.34,1.03,5.44.57,4.27-6.46,5.31-9.11,6.58,0,0-8.53,4.36-14.2,12.28-5.03,7.03-6.82,17.91-3.08,27.36,4.17,10.54,13.52,14.95,18.41,17.26,11.57,5.46,22.37,4.19,26.72,3.44-3.03,1.12-15.95,5.53-30.35-.46-3.19-1.33-14.55-6.26-20.66-19.17-.96-2.02-7.85-17.14-1.2-29.57,5.18-9.69,13.79-9.15,18.84-20.86,1.67-3.86,2.18-8.49,3.89-12.45C29.9,1.37,43.47-4.96,51.14,5.06c1.45,1.89,2.02,4.66,3.23,6.11,1.19,1.43,4.25,2.52,5.87,3.94,1.18,1.03,1.95,2.11,2.41,3.25,1.04,2.59.68,5.33-.3,8.2-2.52,7.35-6.22,8.4-7.57,12.36-2.96,8.6,10.58,15.23,12.94,28.49.93,5.2.49,13.43-7.72,24.99Z"/>
      <path class="cls-2" d="M4.48,74.22s-.02-.04-.04-.06h0s.02.04.03.06Z"/>
    </g>
  </g>
</svg>